<?xml version="1.0" encoding="UTF-8" standalone="no"?>
<!-- Created with Inkscape (http://www.inkscape.org/) -->

<svg
   xmlns:dc="http://purl.org/dc/elements/1.1/"
   xmlns:cc="http://creativecommons.org/ns#"
   xmlns:rdf="http://www.w3.org/1999/02/22-rdf-syntax-ns#"
   xmlns:svg="http://www.w3.org/2000/svg"
   xmlns="http://www.w3.org/2000/svg"
   xmlns:xlink="http://www.w3.org/1999/xlink"
   xmlns:sodipodi="http://sodipodi.sourceforge.net/DTD/sodipodi-0.dtd"
   xmlns:inkscape="http://www.inkscape.org/namespaces/inkscape"
   width="553.88751"
   height="583.25201"
   id="svg2"
   version="1.1"
   inkscape:version="0.48.4 r9939"
   sodipodi:docname="score.svg"
   inkscape:export-filename="/tmp/score.png"
   inkscape:export-xdpi="3.9919391"
   inkscape:export-ydpi="3.9919391">
  <defs
     id="defs4">
    <linearGradient
       id="linearGradient3423">
      <stop
         style="stop-color:#ff2a2a;stop-opacity:1;"
         offset="0"
         id="stop3425" />
      <stop
         id="stop4199"
         offset="0.5"
         style="stop-color:#ff1313;stop-opacity:1;" />
      <stop
         style="stop-color:#a80000;stop-opacity:1;"
         offset="1"
         id="stop3427" />
    </linearGradient>
    <inkscape:perspective
       sodipodi:type="inkscape:persp3d"
       inkscape:vp_x="0 : 526.18109 : 1"
       inkscape:vp_y="0 : 1000 : 0"
       inkscape:vp_z="744.09448 : 526.18109 : 1"
       inkscape:persp3d-origin="372.04724 : 350.78739 : 1"
       id="perspective10" />
    <inkscape:perspective
       id="perspective4341"
       inkscape:persp3d-origin="0.5 : 0.33333333 : 1"
       inkscape:vp_z="1 : 0.5 : 1"
       inkscape:vp_y="0 : 1000 : 0"
       inkscape:vp_x="0 : 0.5 : 1"
       sodipodi:type="inkscape:persp3d" />
    <inkscape:perspective
       id="perspective4363"
       inkscape:persp3d-origin="0.5 : 0.33333333 : 1"
       inkscape:vp_z="1 : 0.5 : 1"
       inkscape:vp_y="0 : 1000 : 0"
       inkscape:vp_x="0 : 0.5 : 1"
       sodipodi:type="inkscape:persp3d" />
    <inkscape:perspective
       id="perspective4673"
       inkscape:persp3d-origin="0.5 : 0.33333333 : 1"
       inkscape:vp_z="1 : 0.5 : 1"
       inkscape:vp_y="0 : 1000 : 0"
       inkscape:vp_x="0 : 0.5 : 1"
       sodipodi:type="inkscape:persp3d" />
    <inkscape:perspective
       id="perspective4673-1"
       inkscape:persp3d-origin="0.5 : 0.33333333 : 1"
       inkscape:vp_z="1 : 0.5 : 1"
       inkscape:vp_y="0 : 1000 : 0"
       inkscape:vp_x="0 : 0.5 : 1"
       sodipodi:type="inkscape:persp3d" />
    <inkscape:perspective
       id="perspective4673-5"
       inkscape:persp3d-origin="0.5 : 0.33333333 : 1"
       inkscape:vp_z="1 : 0.5 : 1"
       inkscape:vp_y="0 : 1000 : 0"
       inkscape:vp_x="0 : 0.5 : 1"
       sodipodi:type="inkscape:persp3d" />
    <inkscape:perspective
       id="perspective4673-4"
       inkscape:persp3d-origin="0.5 : 0.33333333 : 1"
       inkscape:vp_z="1 : 0.5 : 1"
       inkscape:vp_y="0 : 1000 : 0"
       inkscape:vp_x="0 : 0.5 : 1"
       sodipodi:type="inkscape:persp3d" />
    <linearGradient
       inkscape:collect="always"
       xlink:href="#linearGradient3423"
       id="linearGradient3429"
       x1="212.53647"
       y1="92.749542"
       x2="271.35724"
       y2="92.411491"
       gradientUnits="userSpaceOnUse" />
  </defs>
  <sodipodi:namedview
     id="base"
     pagecolor="#ffffff"
     bordercolor="#666666"
     borderopacity="1.0"
     inkscape:pageopacity="0.0"
     inkscape:pageshadow="2"
     inkscape:zoom="0.36976738"
     inkscape:cx="1139.0688"
     inkscape:cy="790.52664"
     inkscape:document-units="px"
     inkscape:current-layer="g2776"
     showgrid="false"
     inkscape:window-width="1916"
     inkscape:window-height="1060"
     inkscape:window-x="0"
     inkscape:window-y="16"
     inkscape:window-maximized="0"
     showguides="true"
     inkscape:guide-bbox="true"
     objecttolerance="10000"
     guidetolerance="10000" />
  <metadata
     id="metadata7">
    <rdf:RDF>
      <cc:Work
         rdf:about="">
        <dc:format>image/svg+xml</dc:format>
        <dc:type
           rdf:resource="http://purl.org/dc/dcmitype/StillImage" />
        <dc:title></dc:title>
      </cc:Work>
    </rdf:RDF>
  </metadata>
  <g
     inkscape:label="Layer 1"
     inkscape:groupmode="layer"
     id="layer1"
     transform="translate(-52.530009,-151.15086)">
    <g
       id="g4788"
       transform="matrix(0.25881905,0.96592583,-0.96592583,0.25881905,644.84527,20.748171)">
      <path
         sodipodi:nodetypes="csssssssc"
         transform="translate(52.530009,151.15086)"
         id="path4736"
         d="m 389.6679,311.12031 c -7.21741,-4.82939 -14.21201,-9.23351 -14.2255,-9.62218 -0.0469,-1.35365 11.52058,-14.04932 15.56548,-17.13495 2.51632,-1.91955 6.38986,-3.37709 8.17233,-3.37709 4.02858,0 8.35411,4.60149 10.49015,9.43037 2.00246,4.52689 1.02277,7.40163 -2.67928,18.10832 -1.07133,3.09839 -2.58079,6.59363 -2.69532,8.09672 -0.11453,1.50309 1.0434,4.72624 0.76085,4.69121 -0.28255,-0.035 -8.1713,-5.36302 -15.38871,-10.1924 z"
         style="color:#000000;fill:#434343;fill-opacity:1;fill-rule:nonzero;stroke:#434343;stroke-width:1;stroke-linecap:round;stroke-linejoin:round;stroke-miterlimit:4;stroke-opacity:1;stroke-dasharray:none;stroke-dashoffset:0;marker:none;visibility:visible;display:inline;overflow:visible;enable-background:accumulate"
         inkscape:connector-curvature="0" />
      <path
         sodipodi:nodetypes="cccssssscc"
         transform="translate(52.530009,151.15086)"
         id="path4738"
         d="m 466.01713,257.00568 -7.73311,-8.06318 5.99674,-12.5095 c 9.39581,-18.75072 17.78355,-21.84295 26.79341,-14.26165 3.75026,3.15563 5.35509,9.37725 3.9281,14.77616 -0.59073,2.235 -4.00439,8.01991 -7.5859,13.34964 -3.58151,5.32972 -7.47915,10.89103 -7.83764,12.52323 -0.35849,1.6322 -0.21916,5.49174 -0.67892,5.77589 -0.45976,0.28415 -5.6571,-4.82378 -10.72586,-9.70337 l -2.15682,-1.88722 z"
         style="color:#000000;fill:#434343;fill-opacity:1;fill-rule:nonzero;stroke:#434343;stroke-width:1;stroke-linecap:round;stroke-linejoin:round;stroke-miterlimit:4;stroke-opacity:1;stroke-dasharray:none;stroke-dashoffset:0;marker:none;visibility:visible;display:inline;overflow:visible;enable-background:accumulate"
         inkscape:connector-curvature="0" />
      <rect
         ry="5.3837175"
         transform="matrix(0.78076888,0.62481994,-0.62481994,0.78076888,0,0)"
         y="239.19142"
         x="264.65015"
         height="10.767435"
         width="601.71381"
         id="rect2818"
         style="color:#000000;fill:#000000;fill-opacity:1;fill-rule:nonzero;stroke:#ffc7c7;stroke-width:0.2;stroke-linecap:round;stroke-linejoin:round;stroke-miterlimit:4;stroke-opacity:1;stroke-dasharray:none;stroke-dashoffset:0;marker:none;visibility:visible;display:inline;overflow:visible;enable-background:accumulate" />
      <path
         sodipodi:nodetypes="cccc"
         transform="translate(52.530004,15.031062)"
         id="path4600"
         d="M 11.793207,345.52718 C 36.299443,317.32822 63.386478,200.13135 117.93207,198.1121 c 18.8149,-3.59375 205.68441,172.74871 283.41329,219.35364 -22.07293,-12.22666 -79.89871,121.51828 -111.23248,150.95304"
         style="fill:none;stroke:#000000;stroke-width:1px;stroke-linecap:butt;stroke-linejoin:miter;stroke-opacity:1"
         inkscape:connector-curvature="0" />
      <path
         sodipodi:nodetypes="cccccc"
         transform="translate(52.530004,15.031062)"
         id="path4602"
         d="m 401.04014,417.30116 c 1.39201,0.77334 6.8881,3.02357 9.57014,10.5754 2.88285,10.51309 -11.82311,26.28891 -2.56533,32.04472 37.33237,23.21055 45.64918,-125.23977 81.37312,-103.78022 0,0 -259.09508,-199.97334 -284.21628,-199.30519 -28.6992,1.45819 -52.57528,62.78526 -52.57528,62.78526"
         style="fill:none;stroke:#000000;stroke-width:1px;stroke-linecap:butt;stroke-linejoin:miter;stroke-opacity:1"
         inkscape:connector-curvature="0" />
      <path
         sodipodi:nodetypes="cccccc"
         transform="translate(52.530004,15.031062)"
         id="path4604"
         d="m 489.07917,355.89371 c 1.94867,1.10142 11.37668,7.21503 4.47737,22.25068 -2.28878,4.98743 -20.59728,24.42122 -11.84596,30.37527 28.5367,19.41524 71.67695,-101.73227 71.67695,-101.73227 -75.35148,-29.67884 -148.59244,-98.94245 -261.32068,-170.16759 -3.40286,24.68787 -23.1777,39.92692 -32.83375,50.02401"
         style="fill:none;stroke:#000000;stroke-width:1px;stroke-linecap:butt;stroke-linejoin:miter;stroke-opacity:1"
         inkscape:connector-curvature="0" />
      <path
         sodipodi:nodetypes="cc"
         transform="translate(52.530009,151.15086)"
         id="path4659"
         d="M 480.71296,271.53554 457.96652,249.7956"
         style="fill:none;stroke:#000000;stroke-width:1px;stroke-linecap:butt;stroke-linejoin:miter;stroke-opacity:1"
         inkscape:connector-curvature="0" />
      <path
         sodipodi:nodetypes="cc"
         transform="translate(52.530009,151.15086)"
         id="path4661"
         d="m 408.13947,323.86858 c 0,0 -33.41141,-22.25628 -33.41141,-22.25628"
         style="fill:none;stroke:#000000;stroke-width:1px;stroke-linecap:butt;stroke-linejoin:miter;stroke-opacity:1"
         inkscape:connector-curvature="0" />
      <path
         sodipodi:nodetypes="cc"
         transform="translate(52.530009,151.15086)"
         id="path4663"
         d="M 53.544448,239.99386 C 87.730216,188.50904 96.495506,118.5366 156.80874,86.053572"
         style="fill:none;stroke:#000000;stroke-width:1px;stroke-linecap:butt;stroke-linejoin:miter;stroke-opacity:1"
         inkscape:connector-curvature="0" />
      <path
         sodipodi:nodetypes="cc"
         id="path4663-6"
         d="M 151.01355,428.91268 C 185.19932,377.42786 194.91763,307.45542 255.23086,274.97239"
         style="fill:none;stroke:#000000;stroke-width:1px;stroke-linecap:butt;stroke-linejoin:miter;stroke-opacity:1"
         inkscape:connector-curvature="0" />
      <path
         sodipodi:nodetypes="cc"
         id="path4663-0"
         d="M 196.90879,467.15872 C 240.65607,410.89315 248.93858,354.06543 301.6026,313.93319"
         style="fill:none;stroke:#000000;stroke-width:1px;stroke-linecap:butt;stroke-linejoin:miter;stroke-opacity:1"
         inkscape:connector-curvature="0" />
      <path
         sodipodi:nodetypes="cc"
         id="path4663-7"
         d="M 247.58478,507.31705 C 290.37591,459.65683 296.51414,387.76896 350.13431,354.32978"
         style="fill:none;stroke:#000000;stroke-width:1px;stroke-linecap:butt;stroke-linejoin:miter;stroke-opacity:1"
         inkscape:connector-curvature="0" />
      <path
         sodipodi:nodetypes="cc"
         id="path4663-2"
         d="M 293.48002,546.51923 C 336.27115,497.90286 345.03644,436.53578 402.48123,396.40354"
         style="fill:none;stroke:#000000;stroke-width:1px;stroke-linecap:butt;stroke-linejoin:miter;stroke-opacity:1"
         inkscape:connector-curvature="0" />
      <path
         sodipodi:nodetypes="cc"
         transform="translate(52.530009,151.15086)"
         id="path4714"
         d="M 69.799012,97.527382 C 186.16156,181.69952 267.02378,273.39811 354.73197,331.78434"
         style="fill:none;stroke:#000000;stroke-width:1px;stroke-linecap:butt;stroke-linejoin:miter;stroke-opacity:1"
         inkscape:connector-curvature="0" />
      <path
         sodipodi:nodetypes="cc"
         transform="translate(52.530009,151.15086)"
         id="path4716"
         d="M 38.004645,158.95929 C 153.6989,232.80364 215.13707,315.0534 323.18212,384.85228"
         style="fill:none;stroke:#000000;stroke-width:1px;stroke-linecap:butt;stroke-linejoin:miter;stroke-opacity:1"
         inkscape:connector-curvature="0" />
      <path
         transform="translate(52.530009,151.15086)"
         id="path4718"
         d="M 92.09694,112.96954 C 81.987411,105.24003 73.216701,98.416609 72.606471,97.806379 71.76456,96.964468 73.003026,94.779187 77.741373,88.74581 88.079579,75.582086 97.402308,68.24045 107.89559,64.999405 c 8.52142,-2.631997 11.92923,-2.420969 18.24241,1.129657 7.66776,4.312463 27.84476,18.766963 27.84476,19.947565 0,0.286438 -1.39837,1.319517 -3.10749,2.295733 -10.91411,6.233926 -25.85565,19.86965 -34.915,31.86361 -2.8798,3.81265 -5.29143,6.8995 -5.35918,6.85966 -0.0678,-0.0399 -8.39462,-6.39659 -18.50415,-14.12609 l 0,0 z"
         style="color:#000000;fill:#000000;fill-opacity:1;fill-rule:nonzero;stroke:#000000;stroke-width:1;stroke-linecap:round;stroke-linejoin:round;stroke-miterlimit:4;stroke-opacity:1;stroke-dasharray:none;stroke-dashoffset:0;marker:none;visibility:visible;display:inline;overflow:visible;enable-background:accumulate"
         inkscape:connector-curvature="0" />
      <path
         sodipodi:nodetypes="cssscccssssc"
         transform="translate(52.530009,151.15086)"
         id="path4720"
         d="m 199.878,202.50732 c -2.89235,-2.69749 -13.21878,-11.78394 -22.94762,-20.19211 -9.72883,-8.40818 -17.8323,-15.6509 -18.0077,-16.09494 -0.38565,-0.9763 4.59987,-7.54719 12.78221,-16.82597 6.81503,-7.72826 16.63649,-16.36655 25.43391,-21.71071 l 5.6104,-2.56795 22.00691,18.42555 c 12.10379,10.13405 22.38709,18.73336 22.24637,19.10957 -0.14071,0.37622 -4.38688,4.02494 -8.83054,8.10827 -10.31511,9.4787 -17.73483,17.83775 -25.17257,28.35939 -3.25278,4.60147 -5.76003,9.43616 -6.29584,9.41612 -0.53581,-0.02 -3.93317,-3.32974 -6.82553,-6.02722 z"
         style="color:#000000;fill:#000000;fill-opacity:1;fill-rule:nonzero;stroke:#000000;stroke-width:1;stroke-linecap:round;stroke-linejoin:round;stroke-miterlimit:4;stroke-opacity:1;stroke-dasharray:none;stroke-dashoffset:0;marker:none;visibility:visible;display:inline;overflow:visible;enable-background:accumulate"
         inkscape:connector-curvature="0" />
      <path
         sodipodi:nodetypes="cssscccssccc"
         transform="translate(52.530009,151.15086)"
         id="path4722"
         d="m 299.2245,288.90692 c -2.31522,-1.88085 -13.02998,-10.93132 -23.81058,-20.11216 -10.7806,-9.18083 -19.76606,-16.82091 -19.96769,-16.97796 -0.20163,-0.15704 2.88741,-5.17178 6.86453,-11.14386 8.48969,-12.74817 17.94066,-23.18286 27.92098,-30.82717 l 7.16952,-5.4914 4.66153,3.71652 c 29.23772,23.31053 47.03272,36.96881 46.43326,37.45353 -0.40135,0.32453 -4.91039,3.23981 -8.65223,6.237 -9.34351,7.48412 -20.87964,19.69764 -29.33006,31.0523 l -7.07977,9.51294 -4.20949,-3.41974 z"
         style="color:#000000;fill:#000000;fill-opacity:1;fill-rule:nonzero;stroke:#000000;stroke-width:1;stroke-linecap:round;stroke-linejoin:round;stroke-miterlimit:4;stroke-opacity:1;stroke-dasharray:none;stroke-dashoffset:0;marker:none;visibility:visible;display:inline;overflow:visible;enable-background:accumulate"
         inkscape:connector-curvature="0" />
      <path
         sodipodi:nodetypes="csssssc"
         transform="translate(52.530009,151.15086)"
         id="path4724"
         d="m 219.04169,303.31554 c -20.20049,-17.49156 -41.5966,-36.9084 -41.40828,-37.57774 0.37209,-1.32242 21.71495,-41.05911 25.53959,-47.55025 1.95406,-3.31641 3.60577,-7.08301 4.03255,-6.92191 1.4749,0.55676 45.29601,40.57354 45.03977,41.10403 -5.17329,10.70983 -27.56798,55.50406 -27.74079,55.48759 -0.13457,-0.0128 -2.59285,-2.05661 -5.46284,-4.54172 z"
         style="color:#000000;fill:#000000;fill-opacity:1;fill-rule:nonzero;stroke:#000000;stroke-width:1;stroke-linecap:round;stroke-linejoin:round;stroke-miterlimit:4;stroke-opacity:1;stroke-dasharray:none;stroke-dashoffset:0;marker:none;visibility:visible;display:inline;overflow:visible;enable-background:accumulate"
         inkscape:connector-curvature="0" />
      <path
         transform="translate(52.530009,151.15086)"
         id="path4726"
         d="m 311.18579,375.46793 c -6.35667,-4.30536 -17.35166,-12.09585 -24.43331,-17.31219 l -12.87572,-9.48427 8.71689,-15.85373 c 12.19996,-22.18851 20.61791,-36.41097 21.55083,-36.41097 0.43645,0 6.95108,4.74456 14.47697,10.54348 7.5259,5.79892 18.45923,13.86644 24.29629,17.92783 l 10.61284,7.38434 -3.54918,5.73691 c -1.95206,3.1553 -8.81661,14.66496 -15.25457,25.57703 -6.43796,10.91207 -11.76794,19.81299 -11.84441,19.77982 -0.0765,-0.0332 -5.33995,-3.58289 -11.69663,-7.88825 l 0,0 z"
         style="color:#000000;fill:#000000;fill-opacity:1;fill-rule:nonzero;stroke:#000000;stroke-width:1;stroke-linecap:round;stroke-linejoin:round;stroke-miterlimit:4;stroke-opacity:1;stroke-dasharray:none;stroke-dashoffset:0;marker:none;visibility:visible;display:inline;overflow:visible;enable-background:accumulate"
         inkscape:connector-curvature="0" />
      <path
         sodipodi:nodetypes="csscccsssc"
         transform="translate(52.530009,151.15086)"
         id="path4728"
         d="m 123.89561,220.92197 c -0.72194,-1.16811 -20.28515,-16.79646 -32.30169,-25.80466 -5.127359,-3.84373 -9.322471,-7.39492 -9.322471,-7.89154 0,-2.05589 17.3488,-37.60003 22.904461,-46.92655 l 6.00569,-10.082 18.77117,15.32602 c 26.99643,22.04167 26.29978,19.91417 24.75214,22.34693 -6.18406,9.72077 -10.95554,17.86387 -19.16046,34.57477 -5.22863,10.64913 -9.86276,19.36206 -10.29805,19.36206 -0.4353,0 -1.04316,-0.40726 -1.35079,-0.90503 z"
         style="color:#000000;fill:#000000;fill-opacity:1;fill-rule:nonzero;stroke:#000000;stroke-width:1;stroke-linecap:round;stroke-linejoin:round;stroke-miterlimit:4;stroke-opacity:1;stroke-dasharray:none;stroke-dashoffset:0;marker:none;visibility:visible;display:inline;overflow:visible;enable-background:accumulate"
         inkscape:connector-curvature="0" />
      <path
         transform="translate(52.530009,151.15086)"
         id="path4730"
         d="M 33.903758,223.53707 C 23.431239,215.07805 14.964566,207.80808 15.08893,207.38158 c 0.124364,-0.4265 1.679704,-3.05181 3.456312,-5.83402 1.776608,-2.78221 6.989439,-13.01851 11.584068,-22.74735 4.59463,-9.72883 8.440943,-17.7838 8.54736,-17.89993 0.268241,-0.29272 10.966117,6.85704 27.045885,18.0757 l 13.569858,9.46752 -5.253624,11.19388 c -6.141978,13.0867 -14.189222,28.43963 -18.239541,34.79831 l -2.854546,4.4814 -19.040944,-15.38002 z"
         style="color:#000000;fill:#000000;fill-opacity:1;fill-rule:nonzero;stroke:#000000;stroke-width:1;stroke-linecap:round;stroke-linejoin:round;stroke-miterlimit:4;stroke-opacity:1;stroke-dasharray:none;stroke-dashoffset:0;marker:none;visibility:visible;display:inline;overflow:visible;enable-background:accumulate"
         inkscape:connector-curvature="0" />
      <path
         transform="translate(52.530009,151.15086)"
         id="path4732"
         d="m 122.90786,294.90505 c -12.09531,-9.72574 -21.86234,-18.1642 -21.70451,-18.75214 0.15782,-0.58794 2.37832,-4.60973 4.93443,-8.93732 2.55611,-4.32759 8.26147,-15.38931 12.67857,-24.58161 l 8.03109,-16.71327 11.8944,10.0429 c 16.96596,14.32503 34.78899,30.00336 35.15209,30.92216 0.63945,1.61808 -26.9286,45.85619 -28.50337,45.73901 -0.27018,-0.0201 -10.38739,-7.99399 -22.4827,-17.71973 z"
         style="color:#000000;fill:#000000;fill-opacity:1;fill-rule:nonzero;stroke:#000000;stroke-width:1;stroke-linecap:round;stroke-linejoin:round;stroke-miterlimit:4;stroke-opacity:1;stroke-dasharray:none;stroke-dashoffset:0;marker:none;visibility:visible;display:inline;overflow:visible;enable-background:accumulate"
         inkscape:connector-curvature="0" />
      <path
         transform="translate(52.530009,151.15086)"
         id="path4734"
         d="m 220.76369,373.21141 c -12.27595,-9.80166 -22.46352,-17.93364 -22.63904,-18.07105 -0.17552,-0.13742 2.23685,-3.6201 5.36082,-7.73929 6.75464,-8.90651 11.93851,-17.06603 17.69208,-27.84772 l 4.23089,-7.92833 13.31865,11.27485 c 10.33719,8.75091 24.62611,20.34049 31.87739,25.85539 1.19239,0.90687 -16.9449,29.63694 -24.13476,38.23026 l -3.38613,4.0471 -22.3199,-17.82121 z"
         style="color:#000000;fill:#000000;fill-opacity:1;fill-rule:nonzero;stroke:#000000;stroke-width:1;stroke-linecap:round;stroke-linejoin:round;stroke-miterlimit:4;stroke-opacity:1;stroke-dasharray:none;stroke-dashoffset:0;marker:none;visibility:visible;display:inline;overflow:visible;enable-background:accumulate"
         inkscape:connector-curvature="0" />
      <path
         sodipodi:nodetypes="cc"
         transform="translate(52.530009,151.15086)"
         id="path4740"
         d="M 195.05477,116.6504 C 213.99372,93.291155 226.71348,40.289747 249.1447,44.39361"
         style="fill:none;stroke:#000000;stroke-width:1px;stroke-linecap:butt;stroke-linejoin:miter;stroke-opacity:1"
         inkscape:connector-curvature="0" />
      <path
         sodipodi:nodetypes="cc"
         transform="translate(52.530009,151.15086)"
         id="path4742"
         d="m 244.36395,157.35422 c 22.26291,-22.63868 33.9679,-81.211176 52.58829,-80.087831"
         style="fill:none;stroke:#000000;stroke-width:1px;stroke-linecap:butt;stroke-linejoin:miter;stroke-opacity:1"
         inkscape:connector-curvature="0" />
      <path
         sodipodi:nodetypes="cc"
         transform="translate(52.530009,151.15086)"
         id="path4744"
         d="m 287.61958,194.82592 c 19.38439,-15.27521 41.71063,-94.0643 58.68886,-82.18195"
         style="fill:none;stroke:#000000;stroke-width:1px;stroke-linecap:butt;stroke-linejoin:miter;stroke-opacity:1"
         inkscape:connector-curvature="0" />
      <path
         sodipodi:nodetypes="cc"
         transform="translate(52.530009,151.15086)"
         id="path4746"
         d="m 337.4272,234.79616 c 23.2268,-24.33066 37.61278,-93.72995 58.0556,-85.68365"
         style="fill:none;stroke:#000000;stroke-width:1px;stroke-linecap:butt;stroke-linejoin:miter;stroke-opacity:1"
         inkscape:connector-curvature="0" />
      <path
         sodipodi:nodetypes="cc"
         transform="translate(52.530009,151.15086)"
         id="path4748"
         d="m 388.58911,272.9889 c 14.24558,-15.30084 25.68145,-92.46963 49.09913,-92.27639"
         style="fill:none;stroke:#000000;stroke-width:1px;stroke-linecap:butt;stroke-linejoin:miter;stroke-opacity:1"
         inkscape:connector-curvature="0" />
      <path
         sodipodi:nodetypes="cc"
         transform="translate(52.530009,151.15086)"
         id="path4750"
         d="M 175.66529,41.490672 C 276.5159,149.09068 368.43968,183.57808 448.43475,271.54684"
         style="fill:none;stroke:#000000;stroke-width:1px;stroke-linecap:butt;stroke-linejoin:miter;stroke-opacity:1"
         inkscape:connector-curvature="0" />
      <path
         transform="translate(52.530009,151.15086)"
         id="path4752"
         d="m 177.32719,101.48128 c -9.4975,-7.69641 -18.66315,-15.069145 -20.36812,-16.383852 l -3.09995,-2.390377 5.8,-11.767738 c 6.35274,-12.889203 15.12627,-27.19849 16.40609,-26.757694 0.44616,0.153669 9.19643,8.627043 19.44504,18.829721 l 18.63383,18.550324 -5.87435,11.090353 c -3.23089,6.099693 -7.62935,13.730143 -9.77436,16.956553 l -3.9,5.86619 -17.26818,-13.99348 z"
         style="color:#000000;fill:#000000;fill-opacity:1;fill-rule:nonzero;stroke:#000000;stroke-width:1;stroke-linecap:round;stroke-linejoin:round;stroke-miterlimit:4;stroke-opacity:1;stroke-dasharray:none;stroke-dashoffset:0;marker:none;visibility:visible;display:inline;overflow:visible;enable-background:accumulate"
         inkscape:connector-curvature="0" />
      <path
         sodipodi:nodetypes="csssscccsc"
         transform="translate(52.530009,151.15086)"
         id="path4754"
         d="m 267.64785,176.72464 c -10.71633,-8.9548 -21.29865,-18.06846 -22.00282,-18.73911 -1.06122,-1.01072 0.54562,-0.75093 3.39217,-4.48011 3.76233,-4.92892 9.37504,-14.31256 13.46573,-22.51275 1.44286,-2.89236 2.51686,-7.14948 2.68935,-7.34142 0.29401,-0.32714 36.36916,27.809 41.94043,32.45847 l 2.55618,2.13325 -5.73252,11.46328 c -7.05748,12.89319 -13.86023,22.06837 -16.1123,23.47481 -1.45448,0.90835 -3.55162,-2.54783 -20.19622,-16.45642 z"
         style="color:#000000;fill:#000000;fill-opacity:1;fill-rule:nonzero;stroke:#000000;stroke-width:1;stroke-linecap:round;stroke-linejoin:round;stroke-miterlimit:4;stroke-opacity:1;stroke-dasharray:none;stroke-dashoffset:0;marker:none;visibility:visible;display:inline;overflow:visible;enable-background:accumulate"
         inkscape:connector-curvature="0" />
      <path
         transform="translate(52.530009,151.15086)"
         id="path4756"
         d="m 377.72206,264.26288 c -5.52177,-3.92157 -16.60298,-12.14417 -24.62492,-18.27245 l -14.58533,-11.14233 2.33022,-2.44691 c 3.09052,-3.24528 7.97116,-11.45022 14.97807,-25.17994 l 5.74611,-11.25923 10.22926,7.86444 c 5.6261,4.32545 15.4515,12.17425 21.83422,17.44179 l 11.60496,9.57735 -3.64701,10.55008 c -5.02102,14.52481 -10.27071,26.79912 -12.20681,28.54077 -1.47529,1.32711 -2.51138,0.82291 -11.65877,-5.67357 z"
         style="color:#000000;fill:#000000;fill-opacity:1;fill-rule:nonzero;stroke:#000000;stroke-width:1;stroke-linecap:round;stroke-linejoin:round;stroke-miterlimit:4;stroke-opacity:1;stroke-dasharray:none;stroke-dashoffset:0;marker:none;visibility:visible;display:inline;overflow:visible;enable-background:accumulate"
         inkscape:connector-curvature="0" />
      <path
         sodipodi:nodetypes="ccccsscccsscc"
         transform="translate(52.530009,151.15086)"
         id="path4758"
         d="m 436.52364,257.72646 c -6.83554,-6.98955 -16.16665,-16.09765 -20.73579,-20.24023 l -8.30753,-7.53195 3.77302,-10.03958 c 5.66485,-15.07353 11.77166,-27.12853 16.14766,-31.87593 4.36586,-4.7364 8.91455,-7.13182 10.79847,-5.68665 0.65688,0.5039 11.03249,8.40623 23.05692,17.56072 l 23.0476,17.43454 -4.80787,0.0668 c -7.95653,1.88168 -16.77992,15.66476 -25.7783,40.26849 -2.50032,6.83647 -4.59551,12.50243 -4.65598,12.59101 -0.0605,0.0886 -5.70265,-5.55767 -12.5382,-12.54721 l 0,0 z"
         style="color:#000000;fill:#000000;fill-opacity:1;fill-rule:nonzero;stroke:#000000;stroke-width:1;stroke-linecap:round;stroke-linejoin:round;stroke-miterlimit:4;stroke-opacity:1;stroke-dasharray:none;stroke-dashoffset:0;marker:none;visibility:visible;display:inline;overflow:visible;enable-background:accumulate"
         inkscape:connector-curvature="0" />
      <path
         sodipodi:nodetypes="cssssssssc"
         transform="translate(52.530009,151.15086)"
         id="path4760"
         d="m 336.64698,174.88576 c -12.86246,-9.46078 -23.50667,-17.48255 -23.7998,-17.61493 -1.80647,-0.81584 11.98783,-27.83651 15.58975,-33.20625 4.89016,-7.29025 11.135,-11.98176 13.97788,-11.98176 1.79018,0 9.28622,5.72093 25.37796,17.5959 12.56053,9.2691 23.99711,17.74677 24.20385,17.93119 0.20674,0.18441 -1.42929,-0.1188 -2.42486,0.23429 -6.8571,2.43196 -13.09662,12.41168 -22.51057,32.12935 -3.59715,7.5343 -6.65,12.19046 -6.7841,12.1632 -0.1341,-0.0273 -10.76765,-7.79021 -23.63011,-17.25099 z"
         style="color:#000000;fill:#000000;fill-opacity:1;fill-rule:nonzero;stroke:#000000;stroke-width:1;stroke-linecap:round;stroke-linejoin:round;stroke-miterlimit:4;stroke-opacity:1;stroke-dasharray:none;stroke-dashoffset:0;marker:none;visibility:visible;display:inline;overflow:visible;enable-background:accumulate"
         inkscape:connector-curvature="0" />
      <path
         sodipodi:nodetypes="ccccsssssc"
         transform="translate(52.530009,151.15086)"
         id="path4762"
         d="M 257.67341,116.32362 C 242.66607,103.80448 226.38211,89.230136 221.9975,85.304046 l -5.1308,-4.594249 3.57511,-7.099219 c 8.3484,-16.57771 15.88913,-25.572258 23.30053,-27.792766 4.55229,-1.363901 1.9583,-2.802271 30.97915,17.177969 18.36126,12.641335 19.8363,12.563443 17.72327,13.923454 -5.59394,3.600437 -10.77714,10.231729 -18.76492,26.508575 -4.56802,9.30836 -8.24045,18.17521 -8.76633,18.19065 -0.52589,0.0154 -4.87363,-3.32073 -7.2401,-5.29484 z"
         style="color:#000000;fill:#000000;fill-opacity:1;fill-rule:nonzero;stroke:#000000;stroke-width:1;stroke-linecap:round;stroke-linejoin:round;stroke-miterlimit:4;stroke-opacity:1;stroke-dasharray:none;stroke-dashoffset:0;marker:none;visibility:visible;display:inline;overflow:visible;enable-background:accumulate"
         inkscape:connector-curvature="0" />
      <path
         sodipodi:nodetypes="cc"
         transform="translate(52.530009,151.15086)"
         id="path4764"
         d="m 270.59069,39.20218 c 75.5246,43.724103 161.12289,124.29686 258.16073,186.44942"
         style="fill:none;stroke:#000000;stroke-width:1px;stroke-linecap:butt;stroke-linejoin:miter;stroke-opacity:1"
         inkscape:connector-curvature="0" />
      <path
         sodipodi:nodetypes="cc"
         transform="translate(52.530009,151.15086)"
         id="path4766"
         d="m 335.34597,28.173298 c -5.0901,35.404258 -19.27101,34.50235 -31.10063,54.764161"
         style="fill:none;stroke:#000000;stroke-width:1px;stroke-linecap:butt;stroke-linejoin:miter;stroke-opacity:1"
         inkscape:connector-curvature="0" />
      <path
         sodipodi:nodetypes="cc"
         transform="translate(52.530009,151.15086)"
         id="path4768"
         d="M 381.99693,63.330537 C 375.40539,92.799485 362.43892,101.21134 354.2768,118.09469"
         style="fill:none;stroke:#000000;stroke-width:1px;stroke-linecap:butt;stroke-linejoin:miter;stroke-opacity:1"
         inkscape:connector-curvature="0" />
      <path
         sodipodi:nodetypes="cc"
         transform="translate(52.530009,151.15086)"
         id="path4770"
         d="m 423.91517,91.726769 c -7.60203,39.181041 -17.59789,33.283121 -22.31132,60.849071"
         style="fill:none;stroke:#000000;stroke-width:1px;stroke-linecap:butt;stroke-linejoin:miter;stroke-opacity:1"
         inkscape:connector-curvature="0" />
      <path
         sodipodi:nodetypes="cc"
         transform="translate(52.530009,151.15086)"
         id="path4772"
         d="m 465.15732,121.4752 c -5.38044,32.5626 -11.40011,39.61914 -20.28303,64.90567"
         style="fill:none;stroke:#000000;stroke-width:1px;stroke-linecap:butt;stroke-linejoin:miter;stroke-opacity:1"
         inkscape:connector-curvature="0" />
      <path
         sodipodi:nodetypes="cc"
         transform="translate(52.530009,151.15086)"
         id="path4774"
         d="m 508.42776,149.87143 c -4.3229,19.53198 -11.256,41.43766 -27.04403,62.87737"
         style="fill:none;stroke:#000000;stroke-width:1px;stroke-linecap:butt;stroke-linejoin:miter;stroke-opacity:1"
         inkscape:connector-curvature="0" />
      <path
         transform="translate(52.530009,151.15086)"
         id="path4776"
         d="m 305.45739,60.335354 c -5.3919,-3.702838 -14.97563,-9.953531 -21.29717,-13.890429 -6.32155,-3.936899 -11.62686,-7.271467 -11.7896,-7.410154 -0.16274,-0.138686 0.93099,-1.538821 2.43049,-3.11141 8.05428,-8.446828 14.71838,-20.170813 17.0938,-30.072673 0.46829,-1.9520408 0.9523,-3.549165 1.07558,-3.549165 0.33032,0 24.17186,15.42193 33.41915,21.617223 l 7.98049,5.346588 -0.60462,3.251588 c -2.50762,13.485756 -8.21857,24.887796 -16.23986,32.423241 l -2.2648,2.127623 -9.80346,-6.732432 z"
         style="color:#000000;fill:#000000;fill-opacity:1;fill-rule:nonzero;stroke:#000000;stroke-width:1;stroke-linecap:round;stroke-linejoin:round;stroke-miterlimit:4;stroke-opacity:1;stroke-dasharray:none;stroke-dashoffset:0;marker:none;visibility:visible;display:inline;overflow:visible;enable-background:accumulate"
         inkscape:connector-curvature="0" />
      <path
         transform="translate(52.530009,151.15086)"
         id="path4778"
         d="m 385.14641,119.38367 -20.64649,-15.96072 3.53354,-5.430991 c 7.11308,-10.932652 9.809,-16.783622 13.10805,-28.448397 l 1.72942,-6.114892 20.01708,14.443668 20.01709,14.443669 -1.2726,5.531289 c -2.62845,11.424424 -5.34251,18.404424 -11.53765,29.672494 l -4.30195,7.82461 -20.64649,-15.96073 z"
         style="color:#000000;fill:#000000;fill-opacity:1;fill-rule:nonzero;stroke:#000000;stroke-width:1;stroke-linecap:round;stroke-linejoin:round;stroke-miterlimit:4;stroke-opacity:1;stroke-dasharray:none;stroke-dashoffset:0;marker:none;visibility:visible;display:inline;overflow:visible;enable-background:accumulate"
         inkscape:connector-curvature="0" />
      <path
         transform="translate(52.530009,151.15086)"
         id="path4780"
         d="m 470.94169,184.61174 c -10.31423,-7.4927 -18.75704,-13.96154 -18.76179,-14.37522 -0.005,-0.41367 0.85365,-2.84763 1.90758,-5.4088 4.55967,-11.08059 8.7682,-25.54958 10.93201,-37.58441 l 0.81475,-4.53151 6.85955,4.59705 c 8.09597,5.42568 27.04228,17.30176 31.91858,20.00747 l 3.42381,1.89977 -0.85111,2.77308 c -0.46812,1.52519 -1.91177,6.60385 -3.20811,11.28591 -2.76994,10.00432 -6.38827,19.37744 -10.97711,28.43572 l -3.30501,6.52401 -18.75315,-13.62307 z"
         style="color:#000000;fill:#000000;fill-opacity:1;fill-rule:nonzero;stroke:#000000;stroke-width:1;stroke-linecap:round;stroke-linejoin:round;stroke-miterlimit:4;stroke-opacity:1;stroke-dasharray:none;stroke-dashoffset:0;marker:none;visibility:visible;display:inline;overflow:visible;enable-background:accumulate"
         inkscape:connector-curvature="0" />
      <path
         transform="translate(52.530009,151.15086)"
         id="path4782"
         d="m 423.37513,168.79286 -21.02096,-15.90221 1.20256,-5.14911 c 0.66142,-2.83201 1.61551,-6.1269 2.12021,-7.32197 l 0.91763,-2.17285 7.069,5.51386 c 3.88795,3.03263 13.30603,10.22018 20.92906,15.97234 7.62304,5.75217 14.13262,10.69744 14.46573,10.98951 0.34487,0.30236 -0.49228,3.4581 -1.94412,7.32866 -1.40239,3.7387 -2.58767,6.76306 -2.63397,6.72081 -0.0463,-0.0423 -9.54361,-7.23282 -21.10514,-15.97904 z"
         style="color:#000000;fill:#000000;fill-opacity:1;fill-rule:nonzero;stroke:#000000;stroke-width:1;stroke-linecap:round;stroke-linejoin:round;stroke-miterlimit:4;stroke-opacity:1;stroke-dasharray:none;stroke-dashoffset:0;marker:none;visibility:visible;display:inline;overflow:visible;enable-background:accumulate"
         inkscape:connector-curvature="0" />
      <path
         transform="translate(52.530009,151.15086)"
         id="path4784"
         d="m 330.81117,100.23957 c -12.27123,-8.934906 -22.89282,-16.662629 -23.60354,-17.172721 -1.2579,-0.902819 -1.24643,-0.996618 0.43222,-3.533237 1.95915,-2.960474 7.20137,-9.178026 8.0037,-9.492806 0.60483,-0.237296 5.56808,3.310486 29.02768,20.749288 9.11046,6.772299 16.66127,12.589536 16.77958,12.927186 0.11831,0.33766 -0.97863,2.37718 -2.43766,4.53227 -1.45902,2.15509 -3.16092,4.90714 -3.782,6.11567 -0.62108,1.20853 -1.3496,2.17985 -1.61894,2.15848 -0.26935,-0.0214 -10.52981,-7.34923 -22.80104,-16.28413 z"
         style="color:#000000;fill:#000000;fill-opacity:1;fill-rule:nonzero;stroke:#000000;stroke-width:1;stroke-linecap:round;stroke-linejoin:round;stroke-miterlimit:4;stroke-opacity:1;stroke-dasharray:none;stroke-dashoffset:0;marker:none;visibility:visible;display:inline;overflow:visible;enable-background:accumulate"
         inkscape:connector-curvature="0" />
      <path
         sodipodi:nodetypes="csssssscccc"
         transform="translate(52.530009,151.15086)"
         id="path4786"
         d="m 483.41754,272.05892 c -5.18032,-3.15842 -3.97924,-7.70598 5.80165,-21.96647 7.15287,-10.42885 9.12468,-17.63102 6.52829,-23.84504 -1.32972,-3.18248 -2.92363,-4.86552 -8.58801,-9.06828 -2.51003,-1.86234 -5.35368,-3.67187 -5.35368,-4.02118 0,-0.54042 7.04686,-10.96385 8.45052,-12.60929 0.25953,-0.30422 3.39539,2.61914 7.20997,5.28942 3.81458,2.67028 12.35238,8.43217 18.97289,12.8042 l 12.03728,7.94914 -4.41205,8.03196 c -16.58099,30.18498 -30.90355,43.37599 -40.64686,37.43554 z"
         style="color:#000000;fill:#000000;fill-opacity:1;fill-rule:nonzero;stroke:#000000;stroke-width:1;stroke-linecap:round;stroke-linejoin:round;stroke-miterlimit:4;stroke-opacity:1;stroke-dasharray:none;stroke-dashoffset:0;marker:none;visibility:visible;display:inline;overflow:visible;enable-background:accumulate"
         inkscape:connector-curvature="0" />
    </g>
    <path
       style="fill:#ffffff;fill-opacity:1;stroke:none"
       d="m 360.18644,97.693503 c -6.12078,-2.444787 -42.15536,-10.049416 -55.94734,-11.806957 -1.95224,-0.248778 -3.54953,-0.70612 -3.54953,-1.016316 0,-0.310195 2.24234,-6.736212 4.98297,-14.280038 2.74064,-7.543825 6.27739,-17.671236 7.85945,-22.505356 1.58205,-4.83412 3.06672,-8.992833 3.29926,-9.241583 0.47247,-0.505413 22.25745,3.128727 35.19191,5.870666 12.75825,2.704583 30.4746,7.424461 30.4746,8.11885 0,0.297342 -12.18713,30.584614 -16.24901,40.381792 -2.2642,5.461191 -2.73405,5.80833 -6.06231,4.478942 z"
       id="path3084"
       inkscape:connector-curvature="0"
       transform="translate(52.530009,151.15086)" />
    <path
       style="fill:#ffffff;fill-opacity:1;stroke:none"
       d="m 262.15183,136.34782 c -18.91777,-3.42993 -40.54473,-8.65003 -42.15955,-10.17606 -0.47694,-0.45072 17.43271,-42.652806 21.12176,-49.771055 l 1.09282,-2.108665 7.77515,2.292331 c 9.15124,2.698038 25.67169,6.282941 38.66323,8.389842 l 9.25285,1.500578 -1.08323,2.778296 c -2.45178,6.288427 -13.99534,33.540613 -17.31267,40.871973 -3.06718,6.77852 -3.79729,7.89808 -5.21845,8.00198 -0.90879,0.0664 -6.36815,-0.7342 -12.13191,-1.77922 z"
       id="path3086"
       inkscape:connector-curvature="0"
       transform="translate(52.530009,151.15086)" />
    <path
       style="fill:#ffffff;fill-opacity:1;stroke:none"
       d="m 300.35152,209.93901 c -5.20597,-1.44271 -18.74117,-4.77655 -30.0782,-7.40854 -11.33704,-2.63199 -20.69381,-4.86646 -20.79284,-4.96548 -0.099,-0.099 4.95091,-10.64992 11.22206,-23.44644 9.12762,-18.62523 13.77536,-28.38771 15.96767,-33.53975 0.10944,-0.2572 32.59177,5.85226 38.56806,7.25409 6.25479,1.46716 18.7558,4.97172 21.62311,6.06187 l 1.62061,0.61616 -4.44858,9.32628 c -8.41021,17.6317 -23.77352,48.87809 -23.99488,48.80153 -0.12188,-0.0422 -4.48103,-1.25702 -9.68701,-2.69972 z"
       id="path3088"
       inkscape:connector-curvature="0"
       transform="translate(52.530009,151.15086)" />
    <path
       style="fill:#ffffff;fill-opacity:1;stroke:none"
       d="m 388.89114,182.24151 c -8.62112,-8.80236 -25.53768,-19.68115 -39.52231,-25.41621 -4.27634,-1.75372 -7.86398,-3.24472 -7.97253,-3.31334 -0.10855,-0.0686 2.5872,-6.17157 5.99056,-13.5621 3.40336,-7.39054 8.61309,-18.91375 11.57718,-25.60715 2.96409,-6.6934 5.59427,-12.38443 5.84486,-12.64675 0.51038,-0.53426 12.33533,4.15767 18.9698,7.52689 9.20794,4.67612 19.46763,12.01046 28.63129,20.46764 l 3.88235,3.58304 -3.45652,7.77516 c -9.45781,21.27461 -19.65936,43.66324 -20.09966,44.11135 -0.27175,0.27656 -2.00201,-1.03677 -3.84502,-2.91853 l 0,0 z"
       id="path3090"
       inkscape:connector-curvature="0"
       transform="translate(52.530009,151.15086)" />
    <path
       style="fill:#ffffff;fill-opacity:1;stroke:none"
       d="m 206.36668,253.35084 c -15.87797,-4.03553 -36.84065,-11.65056 -36.84065,-13.38296 0,-0.51473 24.29614,-56.35957 24.76959,-56.93305 0.12267,-0.14859 3.95524,1.11493 8.51682,2.80781 10.62504,3.94314 19.84912,6.80635 33.03757,10.25504 l 10.54566,2.75762 -14.04389,28.56526 c -8.13904,16.55481 -14.4208,28.55355 -14.94032,28.53742 -0.49304,-0.0153 -5.46319,-1.18852 -11.04478,-2.60714 l 0,0 z"
       id="path3092"
       inkscape:connector-curvature="0"
       transform="translate(52.530009,151.15086)" />
    <path
       style="fill:#ffffff;fill-opacity:1;stroke:none"
       d="M 336.51812,294.80981 C 324.03385,284.40806 304.97046,275.0005 286.67051,270.21059 l -2.86339,-0.74947 13.58668,-27.1897 c 7.47268,-14.95433 13.66928,-27.28055 13.77022,-27.39159 0.43996,-0.48398 18.31362,6.44971 25.86403,10.03338 8.89078,4.21986 15.7005,8.21273 23.93927,14.03677 l 5.17554,3.65862 -2.55251,5.50543 c -7.19302,15.51443 -19.63828,42.48522 -21.18098,45.90245 -0.96528,2.13817 -1.8501,3.88758 -1.96627,3.88758 -0.11617,0 -1.88242,-1.39241 -3.92498,-3.09425 z"
       id="path3094"
       inkscape:connector-curvature="0"
       transform="translate(52.530009,151.15086)" />
    <path
       style="fill:#ffffff;fill-opacity:1;stroke:none"
       d="m 244.91126,325.22594 c -4.09041,-1.2525 -17.0677,-4.62844 -28.83842,-7.50207 l -21.4013,-5.22479 1.21619,-3.07188 c 1.9998,-5.05112 9.14624,-21.05092 16.41466,-36.74997 6.07149,-13.1138 6.98248,-14.70891 8.2246,-14.40101 0.76826,0.19044 11.13269,2.20684 23.03207,4.48089 28.97143,5.53663 37.65212,7.49021 37.26387,8.38622 -0.17418,0.40197 -5.67171,11.98793 -12.21671,25.74658 -6.54502,13.75865 -12.49628,26.30877 -13.22503,27.88916 -0.72875,1.58038 -1.70926,2.83984 -2.17891,2.79879 -0.46965,-0.041 -4.20061,-1.09941 -8.29102,-2.35192 z"
       id="path3096"
       inkscape:connector-curvature="0"
       transform="translate(52.530009,151.15086)" />
    <path
       style="fill:#ffffff;fill-opacity:1;stroke:none"
       d="m 158.2492,366.58979 c -13.80174,-4.22918 -27.21499,-9.15989 -33.49209,-12.3117 l -4.54092,-2.28004 1.24621,-2.87639 c 4.98938,-11.51597 22.56073,-51.58991 22.6823,-51.73019 0.0832,-0.096 2.4251,0.87603 5.20422,2.16006 5.82963,2.69346 26.35438,9.69955 35.64567,12.16761 3.48766,0.92643 6.48915,1.83236 6.66997,2.01319 0.18082,0.18082 -1.34935,4.52775 -3.40039,9.65984 -4.90948,12.28449 -9.74898,25.35759 -13.77686,37.21588 -1.79907,5.29654 -3.57528,9.61 -3.94713,9.58545 -0.37186,-0.0245 -5.9028,-1.64621 -12.29098,-3.60371 z"
       id="path3098"
       inkscape:connector-curvature="0"
       transform="translate(52.530009,151.15086)" />
    <path
       style="fill:#ffffff;fill-opacity:1;stroke:none"
       d="m 288.85781,411.16848 c -5.88305,-5.99664 -20.24796,-12.47042 -43.6085,-19.65289 -6.87933,-2.11513 -12.58382,-3.912 -12.67666,-3.99304 -0.22976,-0.20058 4.38796,-13.08294 8.64395,-24.11461 6.01073,-15.58001 13.59902,-33.05104 14.35524,-33.05104 1.76395,0 20.52733,7.95839 28.13897,11.935 11.77692,6.15271 28.47247,17.57191 28.47247,19.47422 0,0.43848 -1.54176,4.57968 -3.42614,9.20266 -4.56353,11.1958 -10.7483,27.78521 -13.46812,36.12555 -1.21263,3.71856 -2.39512,6.93177 -2.62775,7.14047 -0.23263,0.2087 -1.94418,-1.17115 -3.80346,-3.06632 z"
       id="path3100"
       inkscape:connector-curvature="0"
       transform="translate(52.530009,151.15086)" />
    <path
       style="fill:#ffffff;fill-opacity:1;stroke:none"
       d="m 300.35152,462.14475 c -29.35477,-2.97428 -42.50523,-7.29488 -46.34497,-15.22671 -1.82162,-3.76298 -1.34061,-9.10211 1.03397,-11.47668 1.61157,-1.61157 7.8037,-2.83227 10.31838,-2.03414 0.72876,0.2313 4.55683,0.44533 8.50684,0.47562 12.48516,0.0958 15.54606,-2.5285 20.15903,-17.2833 1.51819,-4.85601 2.95863,-9.04641 3.20098,-9.31201 0.24236,-0.2656 1.7731,-0.0238 3.40166,0.53724 4.12386,1.42079 14.50723,2.78213 28.62064,3.75241 l 11.994,0.82456 -4.13731,7.82586 c -6.98133,13.20537 -11.31341,20.90177 -18.00992,31.99646 l -6.42726,10.64859 -3.45362,-0.0899 c -1.89949,-0.0495 -5.88758,-0.33654 -8.86242,-0.63796 z"
       id="path3102"
       inkscape:connector-curvature="0"
       transform="translate(52.530009,151.15086)" />
    <path
       style="fill:#ffffff;fill-opacity:1;stroke:none"
       d="m 397.06017,424.37395 c -3.93589,-5.85615 -16.43107,-9.84789 -37.21178,-11.88778 -5.94969,-0.58403 -11.9195,-1.2755 -13.26625,-1.5366 l -2.44864,-0.47473 6.62574,-14.53617 c 3.64416,-7.99489 8.6795,-19.49771 11.18965,-25.56183 l 4.56391,-11.02567 2.7527,0.4409 c 32.69446,5.23673 45.59071,9.86428 47.77107,17.14165 0.72651,2.42487 0.37139,3.48938 -8.4977,25.47298 -5.09074,12.61829 -9.46232,23.15996 -9.71461,23.42592 -0.2523,0.26596 -1.04614,-0.39044 -1.76409,-1.45867 z"
       id="path3104"
       inkscape:connector-curvature="0"
       transform="translate(52.530009,151.15086)" />
    <path
       style="fill:#ffffff;fill-opacity:1;stroke:none"
       d="m 362.55279,356.94572 c -0.74371,-0.16411 -5.30739,-1.0491 -10.14151,-1.96667 -13.61221,-2.58374 -30.76259,-8.00477 -30.76259,-9.72367 0,-0.77428 23.48609,-53.47424 24.80329,-55.65561 0.17573,-0.29102 1.30252,0.0784 2.50398,0.82095 3.42393,2.1161 15.29545,5.81424 27.03288,8.42111 5.9024,1.31092 10.80825,2.47288 10.90188,2.58214 0.15793,0.18428 -4.83904,13.25137 -16.68759,43.63812 -2.64617,6.78636 -5.14578,12.30355 -5.55468,12.26041 -0.4089,-0.0431 -1.35195,-0.21269 -2.09566,-0.37678 z"
       id="path3106"
       inkscape:connector-curvature="0"
       transform="translate(52.530009,151.15086)" />
    <path
       style="fill:#ffffff;fill-opacity:1;stroke:none"
       d="m 440.37886,316.51562 c -2.21301,-3.37748 -10.37782,-7.35019 -20.35751,-9.90525 -2.97484,-0.76164 -10.84046,-2.55637 -17.47916,-3.98829 -6.6387,-1.43192 -12.20824,-2.74137 -12.37677,-2.9099 -0.50096,-0.50096 18.74788,-49.26617 19.99189,-50.64764 0.95339,-1.05874 31.33075,4.90492 38.71897,7.60128 6.04403,2.2058 9.50154,4.51826 11.38416,7.61398 1.12018,1.84199 1.15208,2.30192 0.31109,4.48537 -0.51539,1.3381 -4.93431,12.92938 -9.81982,25.75839 -4.88551,12.82901 -8.96538,23.41103 -9.06638,23.5156 -0.101,0.10457 -0.68891,-0.58103 -1.30647,-1.52354 l 0,0 z"
       id="path3108"
       inkscape:connector-curvature="0"
       transform="translate(52.530009,151.15086)" />
    <path
       style="fill:#ffffff;fill-opacity:1;stroke:none"
       d="m 400.07638,244.78717 c -12.61906,-2.58993 -28.81278,-8.2313 -28.24712,-9.8404 0.10392,-0.29561 5.96371,-12.9847 13.02177,-28.19796 l 12.83283,-27.66049 4.06969,1.5284 c 4.37698,1.6438 14.5108,4.24955 26.26335,6.75321 4.02569,0.85759 7.4493,1.68913 7.60803,1.84786 0.15873,0.15872 -3.62195,8.32488 -8.40151,18.14702 -4.77956,9.82213 -10.78926,22.64959 -13.35489,28.50547 -2.56563,5.85587 -4.96903,10.61681 -5.34089,10.57985 -0.37185,-0.037 -4.17492,-0.78529 -8.45126,-1.66296 z"
       id="path3110"
       inkscape:connector-curvature="0"
       transform="translate(52.530009,151.15086)" />
    <path
       style="fill:#ffffff;fill-opacity:1;stroke:none"
       d="m 480.57638,206.0606 c -1.22171,-2.94946 -6.15536,-7.16422 -11.21001,-9.57658 -4.53635,-2.165 -17.58305,-6.05709 -24.84475,-7.41169 -2.51464,-0.46907 -4.72744,-1.10425 -4.91732,-1.41149 -0.43266,-0.70005 9.06083,-18.04753 18.73221,-34.2294 l 7.34828,-12.29493 3.19711,1.41423 c 5.94204,2.62845 12.49234,6.92983 16.43593,10.79297 6.66492,6.52896 7.80372,10.00377 6.26042,19.10234 -0.99428,5.86184 -7.34778,29.05424 -9.2087,33.61484 l -0.8898,2.18065 -0.90337,-2.18094 0,0 z"
       id="path3112"
       inkscape:connector-curvature="0"
       transform="translate(52.530009,151.15086)" />
    <path
       style="fill:#ffffff;fill-opacity:1;stroke:none"
       d="m 473.58869,279.9174 c -0.23992,-0.23991 -3.26336,-1.5838 -6.71875,-2.98642 -4.08531,-1.6583 -6.2082,-2.8703 -6.06999,-3.46545 0.1169,-0.50338 1.89542,-5.47892 3.95227,-11.05676 2.05685,-5.57783 5.86662,-16.22641 8.46616,-23.66352 2.59954,-7.43711 4.92833,-13.72266 5.17509,-13.96789 0.24676,-0.24523 2.73049,0.91174 5.5194,2.57105 2.78892,1.65931 5.5145,3.27665 6.05686,3.5941 0.83596,0.48929 0.59509,1.95069 -1.5821,9.59876 -3.61418,12.69591 -12.78355,39.29167 -13.64437,39.57549 -0.3951,0.13027 -0.91465,0.0406 -1.15457,-0.19936 l 0,0 z"
       id="path3114"
       inkscape:connector-curvature="0"
       transform="translate(52.530009,151.15086)" />
    <path
       style="fill:#ffffff;fill-opacity:1;stroke:none"
       d="m 424.71977,385.79716 -7.47141,-0.33805 10.30618,-26.02988 c 8.60888,-21.74308 10.50739,-25.99774 11.528,-25.83475 3.6748,0.58688 13.0536,3.85343 13.0536,4.54644 0,0.69122 -19.55729,47.99429 -19.84307,47.99429 -0.0561,0 -3.46403,-0.15212 -7.5733,-0.33805 l 0,0 z"
       id="path3116"
       inkscape:connector-curvature="0"
       transform="translate(52.530009,151.15086)" />
    <path
       style="fill:#ffffff;fill-opacity:1;stroke:none"
       d="m 386.04729,481.06865 c -3.43966,-1.11796 -6.25,-2.39877 -6.2452,-2.84624 0.005,-0.44748 3.60511,-9.48459 8.00069,-20.08247 l 7.99197,-19.26887 5.50646,0.22352 c 3.02855,0.12294 6.23683,0.42718 7.12952,0.6761 l 1.62307,0.45258 -3.83228,9.80346 c -2.10776,5.39191 -5.79784,15.04898 -8.20019,21.46017 -2.40235,6.41118 -4.67215,11.64718 -5.04401,11.63555 -0.37185,-0.0116 -3.49037,-0.93584 -6.93003,-2.0538 z"
       id="path3118"
       inkscape:connector-curvature="0"
       transform="translate(52.530009,151.15086)" />
    <path
       style="fill:#ffffff;fill-opacity:1;stroke:none"
       d="m 429.48676,536.47647 c -15.15436,-1.65418 -48.75673,-6.86002 -49.57749,-7.68077 -0.35761,-0.35761 13.71639,-41.98017 14.49389,-42.86438 0.12904,-0.14675 3.51195,0.37809 7.5176,1.16631 11.70394,2.30306 19.32769,3.03066 32.43809,3.09587 l 12.30919,0.0612 -0.38069,1.69025 c -0.20938,0.92964 -0.9783,4.10757 -1.70871,7.06207 -2.25777,9.1326 -5.1371,24.05093 -6.04304,31.31004 -0.78703,6.30638 -0.98872,6.91872 -2.25224,6.83821 -0.76328,-0.0486 -3.82175,-0.35411 -6.7966,-0.67883 z"
       id="path3120"
       inkscape:connector-curvature="0"
       transform="translate(52.530009,151.15086)" />
    <path
       style="fill:#ffffff;fill-opacity:1;stroke:none"
       d="m 429.14871,440.1635 c -1.30149,-0.15534 -5.4088,-0.61165 -9.12736,-1.01403 -3.71855,-0.40238 -6.84947,-0.81951 -6.95761,-0.92697 -0.17951,-0.17839 14.01602,-35.14793 18.57771,-45.76465 l 1.93135,-4.49497 7.42239,1.97129 c 9.89915,2.62907 19.84332,3.94697 29.90275,3.963 4.55522,0.007 8.28223,0.12782 8.28223,0.26792 0,0.14009 -3.00504,8.43078 -6.67787,18.42374 -3.67283,9.99297 -7.35454,20.04312 -8.18157,22.33368 -1.06428,2.94764 -1.92826,4.28548 -2.95656,4.57811 -1.76214,0.50148 -28.89077,1.05968 -32.21546,0.66288 z"
       id="path3122"
       inkscape:connector-curvature="0"
       transform="translate(52.530009,151.15086)" />
    <path
       style="fill:#ffffff;fill-opacity:1;stroke:none"
       d="m 481.54652,343.43548 c -8.43942,-1.00208 -26.02988,-5.92446 -26.02988,-7.28402 0,-0.40978 3.7602,-10.17188 8.35599,-21.69355 4.59579,-11.52168 9.18607,-23.15428 10.20062,-25.85023 1.01455,-2.69595 1.92942,-4.90173 2.03305,-4.90173 0.10363,0 3.04342,1.35013 6.53287,3.0003 8.89917,4.20842 14.52909,5.39896 25.44431,5.3806 4.92708,-0.008 8.95833,0.20683 8.95833,0.47804 0,0.2712 -3.98283,11.39538 -8.85073,24.72038 -4.8679,13.32501 -9.01069,24.75972 -9.20621,25.41047 -0.31335,1.04293 -1.24774,1.17117 -7.88277,1.08187 -4.14,-0.0557 -8.44001,-0.20967 -9.55558,-0.34213 z"
       id="path3124"
       inkscape:connector-curvature="0"
       transform="translate(52.530009,151.15086)" />
    <g
       id="g2776"
       transform="translate(780.78774,350.93001)"
       style="fill:#ff5555">
      <g
         id="g4224"
         transform="matrix(4.3426446,0,0,4.3426446,-887.69317,-306.55941)"
         inkscape:export-filename="/tmp/part.png"
         inkscape:export-xdpi="3.9919391"
         inkscape:export-ydpi="3.9919391">
        <path
           transform="translate(100,0)"
           d="m 117.90625,31.4375 a 3.8324493,3.8324493 0 0 0 -2.03125,0.53125 c -4.96136,2.832678 -9.67666,4.660904 -14.03125,4.90625 A 3.8324493,3.8324493 0 0 0 98.5625,42.25 c 3.41596,7.651793 6.30151,17.369804 7.125,28.3125 0.76504,10.166077 -3.32565,18.159039 -15.125,28.59375 a 3.8324493,3.8324493 0 0 0 -1.25,3.4375 c 0.173917,1.20542 0.329962,2.64917 0.5,4 a 3.8324493,3.8324493 0 0 0 -1.5625,3.0625 l 0,9.28125 a 3.8324493,3.8324493 0 0 0 3.25,3.78125 c 0.03326,0.38343 0.0607,0.76867 0.09375,1.15625 A 3.8324493,3.8324493 0 0 0 88.25,127.65625 l 0,9.28125 a 3.8324493,3.8324493 0 0 0 3.84375,3.84375 l 0.8125,0 c 0.259428,3.48667 0.533833,6.96988 0.78125,10.53125 a 3.8324493,3.8324493 0 0 0 3.625,3.5625 c 13.81006,0.65227 27.93194,1.26678 36.59375,3.46875 a 3.8324493,3.8324493 0 0 0 4.625,-2.6875 c 0.33638,-1.18684 0.68581,-2.21601 0.96875,-2.8125 0.003,-0.006 -0.003,-0.0254 0,-0.0312 l 2,-0.0625 c 0.54392,0.43644 1.18475,0.96228 1.4375,1.21875 a 3.8324493,3.8324493 0 0 0 4.125,2.9375 c 17.95652,-1.72832 27.01157,-1.89233 37.8125,-2.34375 a 3.8324493,3.8324493 0 0 0 3.6875,-3.78125 c 0.0472,-3.30644 0.1293,-6.65722 0.21875,-10 l 0.5,0 a 3.8324493,3.8324493 0 0 0 3.84375,-3.84375 l 0,-9.28125 a 3.8324493,3.8324493 0 0 0 -3.625,-3.8125 c 0.0233,-0.36534 0.0693,-0.7272 0.0937,-1.09375 a 3.8324493,3.8324493 0 0 0 3.53125,-3.8125 l 0,-9.28125 A 3.8324493,3.8324493 0 0 0 191.0625,106.25 c 0.0666,-0.57836 0.11774,-1.13681 0.1875,-1.71875 A 3.8324493,3.8324493 0 0 0 190.40625,101.625 C 181.27245,90.48907 174.7791,79.293158 174.875,71.15625 c 0.11463,-9.7258 1.13759,-17.736592 7.5,-27.9375 A 3.8324493,3.8324493 0 0 0 180.1875,37.5 c -5.38076,-1.569619 -10.18156,-2.480365 -13.46875,-4.9375 a 3.8324493,3.8324493 0 0 0 -5.34375,0.75 c -2.42779,3.199631 -4.57764,6.789749 -6.75,10.21875 -9.93555,1.117187 -19.49895,0.487336 -28.9375,-1.0625 -1.48265,-2.767771 -2.95452,-5.65744 -4.4375,-8.8125 a 3.8324493,3.8324493 0 0 0 -3.34375,-2.21875 z"
           id="path4222"
           style="fill:#2b0000;stroke:none"
           inkscape:original="M 117.78125 35.28125 C 112.54147 38.27289 107.30228 40.39228 102.0625 40.6875 C 105.64394 48.70996 108.6393 58.84404 109.5 70.28125 C 110.3607 81.71846 105.33547 91.20533 93.09375 102.03125 C 93.42705 104.34135 93.756 106.94414 94.0625 109.65625 L 92.09375 109.65625 L 92.09375 118.9375 L 95 118.9375 C 95.25698 121.71236 95.50669 124.6763 95.75 127.65625 L 92.09375 127.65625 L 92.09375 136.9375 L 96.46875 136.9375 C 96.81212 141.54812 97.16792 146.28248 97.5 151.0625 C 111.28208 151.71345 125.42211 152.22987 134.84375 154.625 C 135.54697 152.14386 136.31869 149.74371 137.90625 149.03125 L 142.8125 148.875 C 145.24389 150.66206 146.94654 152.20351 146.6875 153.09375 C 164.7417 151.35603 173.96465 151.16821 184.71875 150.71875 C 184.78375 146.16655 184.87794 141.57797 185.03125 136.9375 L 189.28125 136.9375 L 189.28125 127.65625 L 185.4375 127.65625 C 185.58876 124.7892 185.77899 121.87429 186 118.9375 L 189.28125 118.9375 L 189.28125 109.65625 L 186.8125 109.65625 C 187.00147 107.81177 187.21201 105.9435 187.4375 104.0625 C 178.1093 92.68956 170.91329 81.13316 171.03125 71.125 C 171.14921 61.11684 172.3627 52.02955 179.125 41.1875 C 174.0359 39.70296 168.68237 38.79799 164.4375 35.625 C 161.81663 39.07909 159.32881 43.22477 156.78125 47.1875 C 145.09126 48.73026 133.98236 47.88153 123.15625 45.96875 C 121.31767 42.67503 119.55174 39.04798 117.78125 35.28125 z "
           inkscape:radius="3.8320661"
           sodipodi:type="inkscape:offset" />
        <path
           sodipodi:nodetypes="cccc"
           transform="translate(-728.25773,-199.77915)"
           inkscape:connector-curvature="0"
           id="path3411"
           d="m 932.34294,241.48308 c 22.94174,5.92954 46.25394,10.37725 73.18786,0.33805 l -36.17135,64.06055 z"
           style="fill:#333333;stroke:none" />
        <path
           sodipodi:nodetypes="cczcczcccccccczc"
           inkscape:connector-curvature="0"
           id="path3409"
           d="m 202.05691,40.68978 c 5.23978,-0.29522 10.47956,-2.41716 15.71934,-5.4088 6.32607,13.4588 12.51595,25.25517 22.64937,25.69183 10.13342,0.43666 16.48573,-15.4485 24.00158,-25.35378 4.24487,3.17299 9.61607,4.09329 14.70517,5.57783 -6.7623,10.84205 -7.99523,19.9093 -8.11319,29.91746 -0.11796,10.00816 7.06729,21.58697 16.39549,32.95991 -1.9953,16.64417 -2.4921,31.78976 -2.7044,46.65095 -10.7541,0.44946 -19.97652,0.62863 -38.03072,2.36635 0.25904,-0.89024 -1.45618,-2.43857 -3.88757,-4.22563 l -4.90174,0.16903 c -1.58756,0.71246 -2.33923,3.09669 -3.04245,5.57783 -9.42164,-2.39513 -23.57248,-2.89858 -37.35456,-3.54953 -1.3034,-18.76144 -2.64771,-36.9092 -4.39466,-49.0173 12.24172,-10.82592 17.25614,-20.33953 16.39544,-31.77674 -0.8607,-11.43721 -3.85566,-21.55695 -7.4371,-29.57941 z"
           style="fill:url(#linearGradient3429);fill-opacity:1;stroke:none" />
        <path
           sodipodi:nodetypes="ccccc"
           inkscape:connector-curvature="0"
           id="path3421"
           d="m 237.04512,64.290334 1.36566,81.877846 c 1.84395,-0.62512 3.01158,-0.20824 4.4222,-0.16573 l 0.65735,-81.594769 c -1.79302,0.617946 -4.01664,0.439752 -6.44521,-0.117347 z"
           style="fill:#ffffff;stroke:none" />
        <rect
           transform="translate(-728.25773,-199.77915)"
           y="309.43121"
           x="920.34216"
           height="9.2963982"
           width="97.189468"
           id="rect3413"
           style="fill:#1a1a1a;fill-opacity:1;stroke:none" />
        <rect
           style="fill:#1a1a1a;fill-opacity:1;stroke:none"
           id="rect3415"
           width="97.189468"
           height="9.2963982"
           x="192.08443"
           y="127.65207" />
        <rect
           transform="translate(-728.25773,-199.77915)"
           y="300.97995"
           x="944.34375"
           height="45.805824"
           width="6.9300327"
           id="rect3417"
           style="fill:#666666;fill-opacity:1;stroke:none" />
        <rect
           style="fill:#666666;fill-opacity:1;stroke:none"
           id="rect3419"
           width="6.9300327"
           height="45.805824"
           x="262.086"
           y="99.200798" />
      </g>
    </g>
  </g>
</svg>
